<?xml version="1.0" standalone="no"?>
<!DOCTYPE svg PUBLIC "-//W3C//DTD SVG 20010904//EN"
 "http://www.w3.org/TR/2001/REC-SVG-20010904/DTD/svg10.dtd">
<svg version="1.0" xmlns="http://www.w3.org/2000/svg"
 width="512.000000pt" height="512.000000pt" viewBox="0 0 512.000000 512.000000"
 preserveAspectRatio="xMidYMid meet">

<g transform="translate(0.000000,512.000000) scale(0.100000,-0.100000)"
fill="#000000" stroke="none">
<path d="M1788 5103 c-75 -29 -134 -77 -169 -138 l-31 -55 -708 0 -708 0 -53
-28 c-39 -20 -62 -41 -84 -77 l-30 -48 -3 -316 c-3 -309 -2 -317 18 -339 28
-30 82 -30 110 0 19 21 20 34 20 314 0 280 1 292 21 318 l20 26 690 0 689 0 0
-50 0 -50 -122 0 c-136 -1 -189 -9 -227 -37 -52 -39 -66 -70 -71 -156 l-5 -82
-325 -5 c-278 -4 -329 -7 -355 -22 -38 -21 -77 -63 -101 -108 -18 -34 -19 -93
-22 -1490 -1 -800 0 -1471 3 -1490 5 -30 65 -94 388 -417 209 -210 392 -387
406 -393 18 -7 356 -9 1082 -8 l1056 3 48 30 c36 22 57 45 77 84 l28 53 0
1793 0 1793 -28 53 c-20 39 -41 62 -77 84 l-48 30 -323 3 -322 3 -3 78 c-3 64
-9 85 -31 118 -43 65 -80 77 -250 81 l-148 4 0 49 0 49 686 0 c428 0 692 -4
704 -10 10 -5 23 -24 29 -41 15 -43 16 -4447 1 -4500 -6 -23 -19 -40 -36 -47
-18 -9 -163 -12 -508 -12 -458 0 -485 -1 -507 -19 -32 -26 -32 -86 1 -113 22
-18 44 -19 534 -16 l511 3 48 28 c26 15 60 47 75 69 l27 42 3 2295 c3 2555 8
2347 -65 2412 -71 61 -37 59 -811 59 l-709 0 -18 40 c-23 51 -93 116 -153 142
-64 29 -164 33 -224 11z m198 -168 c50 -38 64 -78 64 -185 l0 -90 -166 0 -166
0 4 98 c3 79 8 104 26 134 49 79 163 100 238 43z m482 -437 c14 -14 17 -315 3
-336 -4 -8 -25 -24 -47 -37 l-38 -23 -63 40 c-57 36 -69 40 -112 36 -32 -3
-63 -15 -96 -38 -27 -18 -53 -33 -59 -33 -6 0 -38 17 -70 37 -82 50 -123 49
-204 -4 l-62 -40 -62 40 c-82 53 -120 54 -208 1 -61 -37 -65 -38 -90 -23 -62
39 -60 31 -60 213 0 124 3 169 13 172 6 3 266 6 577 6 428 1 569 -2 578 -11z
m-1318 -332 c0 -78 15 -100 114 -164 99 -63 137 -66 218 -17 35 21 68 38 73
38 6 0 37 -17 69 -37 80 -48 113 -47 199 4 l66 40 62 -40 c84 -54 124 -54 208
0 l62 40 57 -37 c37 -24 72 -38 102 -40 41 -4 53 1 130 49 98 61 120 94 120
176 l0 52 302 0 c296 0 302 0 325 -22 l23 -21 0 -1771 0 -1770 -22 -23 -21
-23 -999 0 -998 0 0 303 c0 338 -4 360 -71 408 -34 24 -34 24 -357 27 l-322 3
2 1425 3 1426 24 19 c22 18 43 19 327 19 l304 0 0 -64z m-60 -3216 c0 -132 -1
-240 -3 -240 -1 0 -110 108 -242 240 l-240 240 243 0 242 0 0 -240z"/>
<path d="M863 3580 c-39 -24 -53 -48 -53 -95 0 -49 53 -105 99 -105 126 0 161
166 44 211 -36 13 -54 11 -90 -11z"/>
<path d="M1290 3540 c-27 -27 -26 -81 1 -106 20 -18 49 -19 718 -22 383 -1
706 0 719 3 60 15 81 83 39 123 l-23 22 -717 0 c-704 0 -717 0 -737 -20z"/>
<path d="M1296 3199 c-34 -27 -36 -79 -4 -109 21 -20 32 -20 598 -20 l577 0
21 23 c29 31 28 72 -3 102 l-24 25 -569 0 c-561 0 -570 0 -596 -21z"/>
<path d="M863 2890 c-39 -24 -53 -48 -53 -95 0 -50 53 -105 102 -105 83 0 138
81 103 153 -17 35 -64 67 -102 67 -10 0 -32 -9 -50 -20z"/>
<path d="M1290 2850 c-27 -27 -26 -81 1 -106 20 -18 49 -19 718 -22 383 -1
706 0 719 3 60 15 81 83 39 123 l-23 22 -717 0 c-704 0 -717 0 -737 -20z"/>
<path d="M883 2209 c-82 -24 -99 -135 -29 -191 30 -25 97 -23 129 3 39 30 54
87 33 127 -27 53 -79 76 -133 61z"/>
<path d="M1290 2160 c-27 -27 -26 -81 1 -106 20 -18 49 -19 718 -22 383 -1
706 0 719 3 60 15 81 83 39 123 l-23 22 -717 0 c-704 0 -717 0 -737 -20z"/>
<path d="M1296 1819 c-34 -27 -36 -79 -4 -109 21 -20 31 -20 735 -20 l714 0
24 25 c14 13 25 36 25 50 0 14 -11 37 -25 50 l-24 25 -709 0 c-702 0 -710 0
-736 -21z"/>
<path d="M1290 1470 c-27 -27 -26 -81 1 -106 20 -18 45 -19 601 -19 l580 0 19
24 c25 30 24 76 -1 101 -20 20 -33 20 -600 20 -567 0 -580 0 -600 -20z"/>
<path d="M4309 4561 c-21 -17 -24 -29 -27 -104 l-4 -84 -36 -17 c-83 -37 -114
-83 -193 -281 l-64 -160 -3 -449 -3 -449 22 -23 c27 -29 68 -31 99 -6 16 13
24 32 28 70 l5 52 73 0 74 0 0 -540 0 -540 -75 0 -74 0 -3 341 -3 341 -24 19
c-30 25 -62 24 -95 -2 l-26 -20 0 -600 c0 -647 -1 -639 53 -698 50 -54 83 -61
326 -61 209 0 228 1 269 21 57 28 100 87 108 150 6 45 9 49 33 49 65 0 133 31
187 84 83 83 84 91 84 538 0 367 1 378 19 378 24 0 61 45 61 75 0 103 -171 86
-216 -21 -11 -27 -14 -111 -14 -414 0 -421 -2 -433 -62 -470 -18 -11 -45 -20
-60 -20 l-28 0 0 1068 c0 645 -4 1083 -10 1109 -5 22 -37 112 -71 198 -68 175
-99 220 -181 261 l-48 24 0 80 c0 67 -3 83 -20 100 -25 25 -71 26 -101 1z
m218 -536 c58 -150 58 -150 61 -272 l4 -123 -81 0 -81 0 0 292 c0 289 0 292
19 273 11 -11 46 -87 78 -170z m-247 -110 l0 -285 -75 0 -75 0 0 115 0 115 56
148 c51 136 77 192 89 192 3 0 5 -128 5 -285z m310 -545 l0 -110 -230 0 -230
0 0 110 0 110 230 0 230 0 0 -110z m0 -800 l0 -540 -80 0 -80 0 0 540 0 540
80 0 80 0 0 -540z m0 -864 c0 -145 -3 -177 -16 -190 -13 -13 -46 -16 -210 -16
-116 0 -203 4 -215 10 -18 10 -19 23 -19 190 l0 180 230 0 230 0 0 -174z"/>
<path d="M21 3854 l-21 -27 0 -1815 c0 -1401 3 -1824 12 -1856 16 -54 90 -128
144 -144 31 -9 291 -12 1081 -12 1037 0 1040 0 1067 21 36 28 36 80 0 108 -27
21 -30 21 -1066 21 l-1039 0 -24 25 -25 24 0 1814 0 1814 -21 27 c-15 19 -30
26 -54 26 -24 0 -39 -7 -54 -26z"/>
</g>
</svg>
