<?xml version="1.0" standalone="no"?>
<!DOCTYPE svg PUBLIC "-//W3C//DTD SVG 20010904//EN"
 "http://www.w3.org/TR/2001/REC-SVG-20010904/DTD/svg10.dtd">
<svg version="1.0" xmlns="http://www.w3.org/2000/svg"
 width="512.000000pt" height="512.000000pt" viewBox="0 0 512.000000 512.000000"
 preserveAspectRatio="xMidYMid meet">

<g transform="translate(0.000000,512.000000) scale(0.100000,-0.100000)"
fill="#000000" stroke="none">
<path d="M4390 5104 c-36 -7 -99 -30 -140 -51 -73 -35 -129 -90 -1832 -1787
l-1758 -1750 -46 -95 c-285 -595 -614 -1304 -614 -1326 0 -17 12 -39 34 -61
l34 -34 1227 0 c883 0 1232 3 1248 11 70 36 78 135 14 171 -17 10 -236 14
-1013 18 l-991 5 473 224 473 225 1759 1760 c1721 1722 1761 1763 1796 1836
117 242 74 504 -113 691 -149 149 -347 207 -551 163z m212 -195 c208 -44 347
-249 309 -455 -20 -112 -49 -154 -227 -334 l-163 -165 -283 283 -283 283 165
163 c169 167 213 199 305 222 65 16 111 17 177 3z m-329 -1201 l-108 -108
-282 282 -283 283 107 107 108 108 282 -282 283 -283 -107 -107z m-706 210
l103 -103 -1055 -1055 -1055 -1055 0 -43 c0 -59 41 -102 96 -102 43 0 -35 -75
1534 1488 l625 622 105 -105 105 -105 -1290 -1290 -1290 -1290 -282 282 -283
283 1287 1287 c709 709 1290 1288 1293 1288 2 0 51 -46 107 -102z m-2405
-3203 c-59 -28 -144 -68 -190 -90 l-83 -39 -150 150 c-82 82 -149 153 -149
158 0 4 39 91 87 193 l87 184 252 -252 253 -253 -107 -51z m-562 -120 c57 -57
91 -98 85 -103 -16 -15 -357 -173 -362 -168 -2 2 30 77 73 167 92 197 93 199
102 199 4 0 50 -43 102 -95z"/>
<path d="M1307 1445 c-35 -36 -41 -70 -20 -113 45 -92 183 -58 183 45 0 80
-106 124 -163 68z"/>
<path d="M2860 187 c-14 -7 -33 -29 -43 -50 -18 -36 -18 -38 0 -74 10 -21 29
-43 43 -50 33 -17 451 -18 483 -2 51 26 73 91 47 140 -24 43 -56 49 -287 49
-153 0 -225 -4 -243 -13z"/>
</g>
</svg>
