<?xml version="1.0" standalone="no"?>
<!DOCTYPE svg PUBLIC "-//W3C//DTD SVG 20010904//EN"
 "http://www.w3.org/TR/2001/REC-SVG-20010904/DTD/svg10.dtd">
<svg version="1.0" xmlns="http://www.w3.org/2000/svg"
 width="512.000000pt" height="512.000000pt" viewBox="0 0 512.000000 512.000000"
 preserveAspectRatio="xMidYMid meet">

<g transform="translate(0.000000,512.000000) scale(0.100000,-0.100000)"
fill="#000000" stroke="none">
<path d="M550 2750 l0 -2370 995 0 995 0 0 482 0 483 342 342 343 343 417 0
418 0 0 990 0 990 -555 0 -555 0 0 555 0 555 -1200 0 -1200 0 0 -2370z m1420
1250 l0 -470 -470 0 -470 0 0 470 0 470 470 0 470 0 0 -470z m-630 -960 l0
-150 -155 0 -155 0 0 150 0 150 155 0 155 0 0 -150z m2240 0 l0 -150 -955 0
-955 0 0 150 0 150 955 0 955 0 0 -150z m-670 -640 l0 -150 -940 0 -940 0 0
150 0 150 940 0 940 0 0 -150z m-1570 -640 l0 -150 -155 0 -155 0 0 150 0 150
155 0 155 0 0 -150z m970 0 l0 -150 -320 0 -320 0 0 150 0 150 320 0 320 0 0
-150z m-420 -640 l0 -150 -430 0 -430 0 0 150 0 150 430 0 430 0 0 -150z"/>
<path d="M1330 4000 l0 -170 170 0 170 0 0 170 0 170 -170 0 -170 0 0 -170z"/>
<path d="M3250 4635 l0 -325 332 0 333 0 -325 325 c-179 179 -328 325 -332
325 -5 0 -8 -146 -8 -325z"/>
<path d="M3092 1477 l-252 -252 0 -360 0 -360 252 -252 253 -253 360 0 360 0
253 253 252 252 0 360 0 360 -253 253 -252 252 -360 0 -360 0 -253 -253z m768
-342 l0 -285 -150 0 -150 0 0 285 0 285 150 0 150 0 0 -285z m0 -670 l0 -155
-150 0 -150 0 0 155 0 155 150 0 150 0 0 -155z"/>
</g>
</svg>
