<?xml version="1.0" standalone="no"?>
<!DOCTYPE svg PUBLIC "-//W3C//DTD SVG 20010904//EN"
 "http://www.w3.org/TR/2001/REC-SVG-20010904/DTD/svg10.dtd">
<svg version="1.0" xmlns="http://www.w3.org/2000/svg"
 width="512.000000pt" height="512.000000pt" viewBox="0 0 512.000000 512.000000"
 preserveAspectRatio="xMidYMid meet">

<g transform="translate(0.000000,512.000000) scale(0.100000,-0.100000)"
fill="#000000" stroke="none">
<path d="M1890 4831 c-88 -28 -140 -60 -202 -122 -63 -62 -110 -148 -129 -234
l-12 -52 -151 -6 c-321 -13 -519 -76 -663 -210 -159 -149 -222 -328 -244 -698
-15 -245 -10 -359 17 -395 39 -53 71 -69 134 -69 63 0 95 16 134 69 19 24 21
47 28 224 11 326 27 432 79 539 72 148 208 205 520 219 l145 7 18 -65 c47
-173 192 -311 364 -347 73 -15 1191 -15 1264 0 172 36 317 174 364 347 l18 65
145 -7 c361 -16 500 -95 556 -312 33 -130 38 -217 44 -746 6 -521 7 -537 27
-564 39 -53 71 -69 134 -69 63 0 95 16 134 69 21 27 21 38 21 554 0 563 -6
654 -51 830 -36 145 -84 233 -179 328 -154 154 -339 217 -681 231 l-151 6 -12
52 c-39 174 -175 316 -346 361 -39 11 -181 14 -660 13 -557 0 -615 -2 -665
-18z m1276 -317 c19 -9 44 -31 57 -48 20 -28 22 -44 25 -191 3 -154 2 -162
-20 -194 -13 -19 -36 -44 -51 -55 -28 -21 -36 -21 -617 -21 -581 0 -589 0
-617 21 -15 11 -38 36 -51 55 -22 32 -23 40 -20 194 3 146 5 163 25 191 47 65
28 64 661 64 509 0 578 -2 608 -16z"/>
<path d="M1416 3018 c-110 -63 -106 -222 6 -279 35 -18 55 -20 139 -17 80 2
103 7 125 24 53 39 69 71 69 134 0 63 -16 95 -69 134 -23 17 -45 21 -129 24
-91 2 -106 0 -141 -20z"/>
<path d="M2175 3026 c-94 -41 -124 -168 -58 -247 52 -61 25 -59 818 -59 702 0
727 1 764 20 113 57 113 223 0 280 -37 19 -61 20 -766 20 -583 -1 -734 -3
-758 -14z"/>
<path d="M587 2496 c-49 -18 -64 -32 -89 -79 -20 -39 -20 -52 -15 -681 3 -405
9 -670 16 -721 57 -396 217 -602 536 -691 166 -47 161 -47 1430 -51 1256 -4
1380 -1 1563 38 360 78 542 297 592 714 6 50 14 230 17 400 6 302 5 311 -15
352 -57 112 -217 117 -278 9 -20 -35 -21 -56 -27 -354 -6 -331 -19 -461 -56
-565 -54 -155 -155 -223 -382 -259 -123 -19 -2515 -19 -2638 0 -282 45 -372
133 -418 410 -13 80 -17 212 -20 732 -5 595 -6 637 -24 671 -34 67 -121 101
-192 75z"/>
<path d="M1409 2267 c-49 -32 -83 -105 -74 -158 10 -56 64 -115 119 -130 65
-18 186 -7 230 20 73 46 97 154 49 220 -44 58 -77 71 -188 71 -89 0 -106 -3
-136 -23z"/>
<path d="M2160 2268 c-48 -33 -72 -70 -77 -120 -7 -58 23 -118 74 -149 l38
-24 705 -3 c388 -2 724 0 748 3 57 8 118 62 132 116 19 69 -17 151 -80 184
-25 13 -135 15 -768 15 l-739 0 -33 -22z"/>
<path d="M1444 1540 c-46 -14 -100 -79 -109 -129 -9 -53 25 -126 74 -158 30
-20 47 -23 136 -23 89 0 106 3 135 23 75 51 99 130 61 204 -32 64 -78 87 -180
90 -47 1 -100 -2 -117 -7z"/>
<path d="M2187 1536 c-49 -18 -64 -32 -89 -80 -37 -73 -13 -153 62 -203 l33
-23 739 0 c633 0 743 2 768 15 62 32 99 115 81 183 -13 46 -65 99 -112 112
-21 6 -305 10 -739 10 -563 -1 -713 -4 -743 -14z"/>
</g>
</svg>
