<?xml version="1.0" standalone="no"?>
<!DOCTYPE svg PUBLIC "-//W3C//DTD SVG 20010904//EN"
 "http://www.w3.org/TR/2001/REC-SVG-20010904/DTD/svg10.dtd">
<svg version="1.0" xmlns="http://www.w3.org/2000/svg"
 width="512.000000pt" height="512.000000pt" viewBox="0 0 512.000000 512.000000"
 preserveAspectRatio="xMidYMid meet">

<g transform="translate(0.000000,512.000000) scale(0.100000,-0.100000)"
fill="#000000" stroke="none">
<path d="M2370 5113 c-559 -53 -1006 -230 -1417 -562 -514 -413 -842 -1000
-934 -1671 -18 -125 -18 -515 0 -640 105 -762 511 -1409 1146 -1826 840 -552
1956 -550 2797 4 278 184 543 447 726 720 414 618 536 1381 337 2105 -83 305
-232 606 -424 860 -109 145 -125 159 -167 155 -45 -4 -80 -43 -71 -80 4 -14
35 -60 71 -104 214 -264 376 -589 462 -930 54 -215 68 -340 68 -589 0 -248
-15 -373 -69 -590 -213 -846 -894 -1527 -1740 -1740 -219 -55 -342 -69 -595
-69 -255 0 -368 13 -593 69 -849 213 -1528 892 -1742 1740 -55 219 -69 342
-69 595 0 253 14 376 69 595 213 846 894 1527 1740 1740 217 54 342 69 590 69
251 0 374 -14 595 -70 333 -83 648 -239 910 -449 52 -42 106 -79 118 -82 37
-9 76 26 80 71 4 43 -10 57 -158 170 -376 285 -838 462 -1320 505 -106 10
-328 12 -410 4z"/>
<path d="M2340 4624 c-14 -2 -59 -9 -100 -15 -130 -18 -336 -76 -470 -132
-697 -291 -1178 -924 -1270 -1671 -16 -131 -13 -405 5 -532 52 -358 186 -680
400 -962 109 -144 185 -222 216 -222 41 0 79 36 79 74 0 26 -13 47 -63 102
-239 265 -397 581 -469 934 -20 102 -23 143 -23 360 0 217 3 258 23 360 158
780 748 1370 1532 1531 103 21 142 24 360 24 217 0 258 -3 360 -23 612 -124
1112 -513 1380 -1074 61 -129 120 -306 151 -458 21 -103 24 -141 24 -360 0
-219 -3 -257 -24 -360 -127 -616 -513 -1113 -1072 -1380 -215 -102 -467 -167
-694 -178 -437 -22 -802 72 -1172 304 -55 35 -112 64 -125 64 -34 0 -68 -39
-68 -77 0 -38 23 -59 153 -139 248 -154 539 -256 837 -294 126 -15 398 -13
530 5 920 127 1649 855 1775 1773 20 146 20 418 0 564 -128 930 -870 1661
-1805 1777 -78 10 -412 13 -470 5z"/>
<path d="M1753 3895 c-147 -45 -255 -180 -274 -339 -12 -101 -11 -1904 1
-1996 19 -143 98 -253 228 -317 45 -22 73 -28 147 -31 79 -4 99 -1 152 20 54
22 1572 891 1731 991 123 77 186 190 186 337 0 134 -57 250 -157 318 -57 40
-871 509 -895 516 -29 10 -69 -13 -83 -47 -10 -24 -10 -34 2 -56 10 -18 143
-100 447 -276 238 -137 446 -263 463 -279 100 -95 100 -254 0 -352 -16 -16
-416 -252 -887 -524 -847 -489 -858 -494 -920 -498 -107 -7 -194 39 -239 128
l-25 49 0 1021 0 1021 25 49 c45 88 132 135 239 128 59 -3 75 -11 354 -172
252 -145 296 -167 321 -161 36 8 49 22 57 63 5 24 1 36 -17 54 -30 30 -523
314 -598 345 -65 26 -188 31 -258 8z"/>
</g>
</svg>
