<?xml version="1.0" standalone="no"?>
<!DOCTYPE svg PUBLIC "-//W3C//DTD SVG 20010904//EN"
 "http://www.w3.org/TR/2001/REC-SVG-20010904/DTD/svg10.dtd">
<svg version="1.0" xmlns="http://www.w3.org/2000/svg"
 width="512.000000pt" height="512.000000pt" viewBox="0 0 512.000000 512.000000"
 preserveAspectRatio="xMidYMid meet">

<g transform="translate(0.000000,512.000000) scale(0.100000,-0.100000)"
fill="#000000" stroke="none">
<path d="M2432 5105 c-199 -45 -352 -185 -423 -385 -23 -65 -23 -66 -27 -716
-3 -650 -3 -650 18 -677 28 -35 96 -39 126 -6 18 20 19 50 24 673 6 708 3 678
63 772 36 57 111 122 175 152 51 24 68 27 172 27 104 0 121 -3 172 -27 96 -45
175 -130 216 -232 15 -37 18 -126 22 -853 l5 -812 23 -23 23 -23 812 -5 c727
-4 816 -7 853 -22 102 -41 187 -120 232 -216 24 -51 27 -68 27 -172 0 -104 -3
-121 -27 -172 -45 -96 -130 -175 -232 -216 -37 -15 -126 -18 -853 -22 l-812
-5 -23 -23 -23 -23 0 -514 0 -514 22 -23 c33 -33 89 -30 119 6 l24 27 0 450 0
449 720 0 c617 0 732 2 798 16 317 65 515 369 447 687 -37 176 -161 331 -321
403 -118 52 -146 54 -923 54 l-720 0 -3 753 -3 752 -28 78 c-84 238 -274 381
-522 393 -57 2 -113 -2 -153 -11z"/>
<path d="M480 3130 c-210 -36 -389 -192 -453 -395 -31 -98 -31 -252 0 -350 55
-174 189 -310 368 -372 76 -26 89 -27 263 -28 181 0 184 0 203 24 24 30 24 82
0 112 -19 23 -25 24 -203 30 -198 6 -233 14 -311 68 -61 42 -115 105 -146 170
-23 50 -26 68 -26 171 0 103 3 121 26 171 45 95 133 177 231 217 39 15 120 17
855 22 l812 5 23 22 c33 33 30 89 -6 119 l-27 24 -782 -1 c-430 -1 -802 -5
-827 -9z"/>
<path d="M4659 2681 c-20 -21 -29 -39 -29 -63 0 -40 -29 -90 -67 -115 -24 -16
-59 -19 -290 -23 -255 -5 -263 -6 -285 -27 -33 -33 -30 -89 6 -120 l29 -24
266 3 c263 3 267 3 322 29 70 33 125 88 154 153 46 102 42 181 -11 205 -40 18
-63 13 -95 -18z"/>
<path d="M3513 2470 c-45 -18 -58 -90 -24 -131 18 -22 28 -24 126 -27 66 -3
117 1 134 8 27 11 51 46 51 75 0 27 -22 63 -47 74 -28 13 -208 14 -240 1z"/>
<path d="M1170 2143 c-35 -13 -50 -37 -50 -79 0 -34 5 -47 27 -64 25 -20 37
-21 146 -18 111 3 120 5 138 27 34 42 24 103 -22 126 -28 15 -205 20 -239 8z"/>
<path d="M1673 2140 c-45 -18 -58 -90 -24 -131 18 -23 25 -24 175 -27 l156 -3
0 -720 c0 -777 2 -805 54 -923 95 -211 326 -349 561 -333 312 22 527 250 543
579 5 120 -4 159 -44 177 -40 18 -63 13 -95 -18 -28 -29 -29 -32 -29 -128 0
-157 -36 -249 -131 -338 -27 -25 -75 -58 -107 -73 -51 -24 -68 -27 -172 -27
-107 0 -119 2 -175 29 -99 49 -172 128 -213 230 -15 37 -18 126 -22 853 l-5
812 -23 23 c-22 22 -29 23 -225 25 -111 1 -212 -2 -224 -7z"/>
</g>
</svg>
