<?xml version="1.0" standalone="no"?>
<!DOCTYPE svg PUBLIC "-//W3C//DTD SVG 20010904//EN"
 "http://www.w3.org/TR/2001/REC-SVG-20010904/DTD/svg10.dtd">
<svg version="1.0" xmlns="http://www.w3.org/2000/svg"
 width="512.000000pt" height="512.000000pt" viewBox="0 0 512.000000 512.000000"
 preserveAspectRatio="xMidYMid meet">

<g transform="translate(0.000000,512.000000) scale(0.100000,-0.100000)"
fill="#000000" stroke="none">
<path d="M3430 4784 c-322 -41 -571 -158 -792 -372 -262 -254 -398 -576 -398
-942 0 -361 131 -672 389 -930 113 -113 205 -179 341 -248 296 -149 659 -177
981 -76 398 125 724 448 853 846 51 158 61 224 61 413 -1 182 -13 267 -62 415
-43 128 -146 321 -191 358 -28 22 -78 15 -101 -14 -29 -37 -27 -52 21 -125
212 -326 247 -740 93 -1099 -139 -323 -430 -576 -766 -664 -405 -107 -823 2
-1120 294 -180 177 -290 385 -334 633 -14 77 -16 131 -12 245 6 183 35 300
112 458 326 670 1167 870 1761 418 81 -61 117 -69 152 -31 51 54 20 100 -133
202 -216 143 -437 213 -695 220 -69 2 -141 1 -160 -1z"/>
<path d="M3465 4454 c-263 -37 -449 -126 -617 -297 -264 -267 -351 -692 -213
-1042 94 -239 300 -452 533 -549 121 -52 195 -67 340 -73 252 -10 442 46 632
188 381 284 506 788 301 1214 -58 120 -114 197 -216 294 -126 119 -259 193
-428 236 -94 23 -264 39 -332 29z m297 -174 c100 -26 159 -53 254 -116 379
-250 487 -764 239 -1144 -120 -185 -297 -310 -510 -361 -120 -28 -322 -23
-430 11 -619 198 -800 965 -332 1407 125 118 283 196 452 222 83 13 240 4 327
-19z"/>
<path d="M3525 4118 c-44 -23 -45 -32 -45 -269 l0 -227 -45 -26 c-146 -86
-163 -279 -33 -390 47 -40 91 -56 158 -56 83 0 184 65 211 137 8 23 11 23 153
23 138 0 146 1 172 23 35 31 38 82 5 109 -20 16 -42 18 -170 18 l-146 0 -25
47 c-24 45 -89 103 -117 103 -10 0 -13 43 -13 225 0 245 -4 268 -53 285 -16 5
-30 10 -31 10 -1 0 -10 -6 -21 -12z m84 -664 c86 -72 -16 -202 -107 -138 -70
49 -32 162 55 164 12 0 35 -12 52 -26z"/>
<path d="M70 2608 c-18 -13 -41 -39 -51 -58 -18 -33 -19 -77 -19 -898 0 -955
-3 -906 66 -958 l37 -29 531 -3 c468 -2 536 -1 573 13 53 20 91 65 99 116 l7
39 104 0 c89 0 111 3 143 21 40 22 80 82 80 118 0 20 5 21 117 21 l118 0 295
-294 c312 -312 342 -335 451 -356 31 -6 370 -10 864 -10 807 0 812 0 839 21
34 27 36 77 3 107 l-23 22 -815 0 c-715 0 -822 2 -870 16 -51 15 -71 33 -354
313 -165 164 -311 306 -325 315 -20 13 -51 16 -162 16 l-138 0 0 505 0 505
490 0 c418 0 496 -2 528 -15 47 -20 763 -732 795 -790 30 -56 30 -164 0 -221
-26 -50 -74 -97 -122 -121 -50 -25 -173 -24 -221 1 -19 10 -143 126 -276 257
-205 204 -245 239 -270 239 -47 0 -74 -25 -74 -68 0 -36 13 -50 248 -283 136
-135 263 -255 282 -267 108 -63 262 -68 378 -11 36 17 85 52 109 76 l44 44
622 -3 622 -3 52 -33 c140 -90 163 -269 49 -390 -56 -61 -97 -75 -231 -81 -66
-3 -126 -10 -133 -14 -44 -29 -32 -106 19 -127 46 -20 241 -8 309 18 185 72
297 286 247 475 -32 123 -109 214 -227 270 -54 26 -81 32 -164 37 l-99 5 -12
42 c-30 101 -121 204 -221 250 -80 36 -151 42 -509 43 l-321 0 -374 374 c-346
346 -380 378 -445 408 l-70 33 -512 3 -513 3 0 28 c0 33 -33 86 -73 115 -24
18 -46 22 -143 24 -105 3 -114 5 -114 23 0 34 -40 99 -73 119 -31 19 -54 20
-583 20 l-551 0 -33 -22z m1090 -963 l0 -835 -505 0 -505 0 0 835 0 835 505 0
505 0 0 -835z m330 5 l0 -670 -90 0 -90 0 0 670 0 670 90 0 90 0 0 -670z
m2765 -330 c86 -14 179 -87 200 -157 l6 -23 -418 0 -418 0 0 95 0 95 285 0
c157 0 312 -5 345 -10z"/>
<path d="M520 1120 c-25 -25 -26 -71 -1 -101 19 -24 21 -24 216 -24 l197 0 24
28 c29 34 30 56 3 91 l-20 26 -200 0 c-186 0 -200 -1 -219 -20z"/>
</g>
</svg>
