<?xml version="1.0" standalone="no"?>
<!DOCTYPE svg PUBLIC "-//W3C//DTD SVG 20010904//EN"
 "http://www.w3.org/TR/2001/REC-SVG-20010904/DTD/svg10.dtd">
<svg version="1.0" xmlns="http://www.w3.org/2000/svg"
 width="512.000000pt" height="513.000000pt" viewBox="0 0 512.000000 513.000000"
 preserveAspectRatio="xMidYMid meet">

<g transform="translate(0.000000,513.000000) scale(0.100000,-0.100000)"
fill="#000000" stroke="none">
<path d="M2395 5123 c-533 -43 -1029 -239 -1435 -567 -492 -397 -814 -948
-921 -1576 -30 -178 -38 -534 -15 -718 59 -481 251 -937 553 -1312 247 -307
609 -582 973 -738 532 -228 1102 -272 1666 -127 602 154 1141 542 1496 1075
149 225 293 562 352 826 46 205 56 305 56 574 0 350 -26 517 -126 820 -131
394 -353 745 -653 1033 -170 162 -453 367 -509 367 -29 0 -72 -42 -72 -70 0
-38 20 -60 113 -121 481 -319 827 -773 996 -1309 164 -520 140 -1112 -65
-1614 -289 -709 -897 -1243 -1634 -1436 -197 -51 -369 -73 -595 -73 -284 -1
-503 33 -760 118 -904 298 -1547 1099 -1645 2049 -16 148 -8 473 14 606 132
792 606 1436 1324 1794 495 248 1090 315 1617 185 110 -28 245 -71 338 -108
97 -39 129 -40 156 -5 46 59 20 100 -94 145 -370 146 -774 211 -1130 182z"/>
<path d="M2320 4699 c-986 -112 -1782 -908 -1889 -1891 -45 -409 33 -836 221
-1213 252 -504 688 -886 1213 -1064 141 -48 325 -90 361 -83 44 8 68 67 44
111 -12 23 -43 35 -143 56 -396 84 -805 330 -1073 647 -334 393 -499 866 -481
1378 18 536 239 1021 633 1388 489 457 1169 633 1839 476 380 -89 766 -320
1018 -609 538 -618 655 -1492 297 -2220 -275 -560 -797 -955 -1417 -1075 -59
-11 -188 -26 -288 -32 -199 -12 -218 -19 -218 -77 0 -40 27 -69 71 -77 58 -11
346 14 482 42 1119 227 1867 1284 1705 2409 -65 457 -263 858 -584 1188 -69
71 -160 157 -201 190 -304 246 -720 417 -1109 456 -119 13 -372 12 -481 0z"/>
<path d="M1722 3524 c-39 -19 -59 -38 -80 -72 l-27 -47 -3 -815 c-2 -574 1
-828 8 -860 15 -60 54 -108 106 -131 41 -19 76 -19 857 -17 l815 3 38 31 c21
16 47 43 58 58 21 27 21 36 24 869 3 935 6 896 -63 956 -19 16 -51 35 -72 40
-24 7 -224 11 -550 11 l-512 0 -25 -22 c-36 -33 -39 -75 -6 -108 19 -19 33
-20 534 -20 454 0 516 -2 530 -16 14 -14 16 -102 16 -823 0 -614 -3 -810 -12
-819 -9 -9 -198 -12 -789 -12 l-778 0 -15 22 c-14 20 -16 114 -16 815 0 780 0
793 20 813 18 18 33 20 148 20 121 0 130 1 150 23 31 33 29 80 -4 106 -24 19
-40 21 -163 21 -127 0 -141 -2 -189 -26z"/>
</g>
</svg>
