<?xml version="1.0" standalone="no"?>
<!DOCTYPE svg PUBLIC "-//W3C//DTD SVG 20010904//EN"
 "http://www.w3.org/TR/2001/REC-SVG-20010904/DTD/svg10.dtd">
<svg version="1.0" xmlns="http://www.w3.org/2000/svg"
 width="512.000000pt" height="512.000000pt" viewBox="0 0 512.000000 512.000000"
 preserveAspectRatio="xMidYMid meet">

<g transform="translate(0.000000,512.000000) scale(0.100000,-0.100000)"
fill="#000000" stroke="none">
<path d="M1200 4970 l0 -150 -300 0 -300 0 0 -2410 0 -2410 1660 0 1660 0 0
300 0 300 300 0 300 0 0 1763 0 1762 -498 498 -497 497 -1163 0 -1162 0 0
-150z m2110 -600 l0 -450 453 -2 452 -3 3 -1508 2 -1507 -1355 0 -1355 0 0
1960 0 1960 900 0 900 0 0 -450z m505 40 l190 -190 -198 0 -197 0 0 190 c0
105 3 190 8 190 4 0 93 -85 197 -190z m-2613 -1847 l3 -1958 1208 -3 1207 -2
0 -150 0 -150 -1360 0 -1360 0 0 2110 0 2110 150 0 150 0 2 -1957z"/>
<path d="M1810 4065 l0 -455 450 0 450 0 0 455 0 455 -450 0 -450 0 0 -455z
m600 5 l0 -150 -150 0 -150 0 0 150 0 150 150 0 150 0 0 -150z"/>
<path d="M1810 3160 l0 -150 150 0 150 0 0 150 0 150 -150 0 -150 0 0 -150z"/>
<path d="M2410 3160 l0 -150 753 2 752 3 3 148 3 147 -756 0 -755 0 0 -150z"/>
<path d="M1810 2560 l0 -150 1055 0 1055 0 0 150 0 150 -1055 0 -1055 0 0
-150z"/>
<path d="M1810 1960 l0 -150 150 0 150 0 0 150 0 150 -150 0 -150 0 0 -150z"/>
<path d="M2410 1960 l0 -150 755 0 756 0 -3 148 -3 147 -752 3 -753 2 0 -150z"/>
<path d="M1810 1355 l0 -155 1053 2 1052 3 0 150 0 150 -1052 3 -1053 2 0
-155z"/>
</g>
</svg>
