<?xml version="1.0" standalone="no"?>
<!DOCTYPE svg PUBLIC "-//W3C//DTD SVG 20010904//EN"
 "http://www.w3.org/TR/2001/REC-SVG-20010904/DTD/svg10.dtd">
<svg version="1.0" xmlns="http://www.w3.org/2000/svg"
 width="512.000000pt" height="512.000000pt" viewBox="0 0 512.000000 512.000000"
 preserveAspectRatio="xMidYMid meet">

<g transform="translate(0.000000,512.000000) scale(0.100000,-0.100000)"
fill="#000000" stroke="none">
<path d="M2155 5106 c-83 -38 -105 -88 -105 -244 0 -102 3 -124 23 -162 30
-59 74 -84 162 -90 l70 -5 0 -90 0 -90 -123 -22 c-341 -60 -677 -204 -936
-400 l-58 -44 -78 75 c-69 68 -82 76 -116 76 -36 0 -47 -9 -181 -143 -133
-133 -143 -145 -143 -180 0 -33 9 -47 76 -116 l75 -80 -55 -74 c-78 -105 -137
-205 -205 -348 -300 -624 -287 -1364 35 -1977 487 -929 1550 -1388 2564 -1108
604 167 1116 594 1391 1161 158 326 222 608 223 975 1 476 -136 903 -413 1290
l-60 84 74 77 c111 114 110 117 -68 297 -132 133 -144 142 -179 142 -34 0 -47
-9 -117 -75 l-78 -75 -44 33 c-280 212 -650 368 -986 417 l-83 12 0 93 0 93
73 4 c61 3 80 8 109 30 61 46 70 80 66 236 -3 126 -5 140 -27 171 -49 69 -61
71 -481 70 -292 0 -382 -3 -405 -13z m745 -241 l0 -85 -340 0 -340 0 0 85 0
85 340 0 340 0 0 -85z m-250 -340 l0 -85 -85 0 -85 0 0 85 0 85 85 0 85 0 0
-85z m210 -281 c756 -109 1397 -646 1640 -1372 248 -742 59 -1544 -495 -2097
-642 -642 -1622 -786 -2416 -354 -512 278 -872 743 -1014 1309 -77 306 -77
674 0 980 93 371 275 692 545 960 459 456 1097 667 1740 574z m-1865 -454
l-59 -60 -30 30 -30 30 59 60 59 60 30 -30 30 -30 -59 -60z m3198 52 l57 -58
-30 -29 -30 -29 -60 59 -60 59 27 28 c15 15 29 28 33 28 3 0 31 -26 63 -58z"/>
<path d="M2405 4090 c-640 -53 -1218 -440 -1510 -1011 -85 -166 -144 -333
-175 -499 -51 -269 -40 -597 30 -850 189 -684 741 -1204 1429 -1345 622 -129
1259 62 1707 509 484 484 666 1185 478 1840 -155 540 -540 980 -1056 1207
-264 116 -610 173 -903 149z m272 -170 c543 -42 1004 -310 1304 -758 251 -375
342 -845 249 -1290 -174 -831 -940 -1410 -1788 -1351 -689 47 -1288 514 -1502
1167 -64 197 -74 273 -74 532 0 206 2 248 22 337 115 526 440 950 907 1183
214 107 415 164 632 179 59 5 110 9 113 10 3 0 64 -4 137 -9z"/>
<path d="M2560 3496 l0 -84 79 -4 80 -3 5 30 c17 103 18 127 5 136 -8 5 -49 9
-91 9 l-78 0 0 -84z"/>
<path d="M2905 3463 c-10 -38 -20 -73 -22 -79 -2 -6 30 -23 74 -39 343 -120
618 -399 734 -744 44 -128 60 -231 60 -376 0 -152 -19 -268 -62 -390 -17 -48
-27 -91 -22 -95 12 -10 129 -60 141 -60 15 0 79 203 98 310 22 124 22 336 0
460 -74 423 -351 797 -731 987 -81 41 -215 93 -239 93 -8 0 -21 -28 -31 -67z"/>
<path d="M2507 2469 c-122 -29 -197 -123 -197 -249 0 -106 54 -191 149 -233
49 -21 139 -25 185 -7 30 11 31 10 286 -245 l255 -255 60 60 60 60 -256 258
-256 257 14 45 c53 170 -122 352 -300 309z m103 -179 c27 -14 41 -64 28 -100
-29 -83 -158 -60 -158 29 0 65 70 103 130 71z"/>
</g>
</svg>
